<svg xmlns="http://www.w3.org/2000/svg" version="1.1" xmlns:xlink="http://www.w3.org/1999/xlink" xmlns:svgjs="http://svgjs.dev/svgjs" width="128" height="128" viewBox="0 0 128 128"><g transform="matrix(0.8046875,0,0,0.8046875,12.760752631578946,13.518248858158557)"><svg viewBox="0 0 95 94" data-background-color="#ebe3d6" preserveAspectRatio="xMidYMid meet" height="126" width="128" xmlns="http://www.w3.org/2000/svg" xmlns:xlink="http://www.w3.org/1999/xlink"><g id="tight-bounds" transform="matrix(1,0,0,1,-0.24049999999999727,-0.1979943181818271)"><svg viewBox="0 0 95.481 94.39598863636364" height="94.39598863636364" width="95.481"><g><svg viewBox="0 0 95.481 94.39598863636364" height="94.39598863636364" width="95.481"><g><svg viewBox="0 0 95.481 94.39598863636364" height="94.39598863636364" width="95.481"><g id="textblocktransform"><svg viewBox="0 0 95.481 94.39598863636364" height="94.39598863636364" width="95.481" id="textblock"><g><svg viewBox="0 0 95.481 94.39598863636364" height="94.39598863636364" width="95.481"><g><svg viewBox="0 0 95.481 94.39598863636364" height="94.39598863636364" width="95.481"><g><svg xmlns="http://www.w3.org/2000/svg" viewBox="10 10 44 43.5" x="0" y="0" height="94.39598863636364" width="95.481" class="icon-icon-0" id="icon-0"><path fill-rule="evenodd" clip-rule="evenodd" d="M22.046 11.5C22.046 10.672 21.374 10 20.546 10 19.717 10 19.046 10.672 19.046 11.5V14.5H12C10.895 14.5 10 15.395 10 16.5V51.5C10 52.605 10.895 53.5 12 53.5H52C53.105 53.5 54 52.605 54 51.5V16.5C54 15.395 53.105 14.5 52 14.5H44.955V11.5C44.955 10.672 44.283 10 43.455 10 42.626 10 41.955 10.672 41.955 11.5V14.5H22.046V11.5ZM41.955 19.5V17.5H22.046V19.5C22.046 20.328 21.374 21 20.546 21 19.717 21 19.046 20.328 19.046 19.5V17.5H13V25H51V17.5H44.955V19.5C44.955 20.328 44.283 21 43.455 21 42.626 21 41.955 20.328 41.955 19.5ZM13 50.5V28H51V50.5H13ZM33.427 31.037C33.226 30.418 32.65 30 32 30 31.35 30 30.774 30.418 30.573 31.037L29.114 35.528H24.392C23.742 35.528 23.166 35.946 22.965 36.564 22.764 37.182 22.984 37.859 23.51 38.241L27.331 41.017 25.871 45.509C25.67 46.127 25.89 46.804 26.416 47.186 26.942 47.568 27.654 47.568 28.179 47.186L32 44.41 35.821 47.186C36.346 47.568 37.058 47.568 37.584 47.186 38.11 46.804 38.33 46.127 38.129 45.509L36.669 41.017 40.49 38.241C41.016 37.859 41.236 37.182 41.035 36.564 40.834 35.946 40.258 35.528 39.608 35.528H34.886L33.427 31.037ZM31.631 37.491L32 36.354 32.37 37.491C32.57 38.109 33.146 38.528 33.796 38.528H34.992L34.025 39.231C33.499 39.613 33.279 40.29 33.48 40.908L33.849 42.045 32.882 41.342C32.356 40.96 31.644 40.96 31.118 41.342L30.151 42.045 30.52 40.908C30.721 40.29 30.501 39.613 29.976 39.231L29.008 38.528H30.204C30.854 38.528 31.43 38.109 31.631 37.491Z" fill="#f39361" data-fill-palette-color="accent"></path></svg></g></svg></g></svg></g></svg></g></svg></g></svg></g><defs></defs></svg><rect width="95.481" height="94.39598863636364" fill="none" stroke="none" visibility="hidden"></rect></g></svg></g></svg>